<?xml version="1.0" standalone="no"?><!DOCTYPE svg PUBLIC "-//W3C//DTD SVG 1.1//EN" "http://www.w3.org/Graphics/SVG/1.1/DTD/svg11.dtd"><svg t="1531215335074" class="icon" style="" viewBox="0 0 1024 1024" version="1.1" xmlns="http://www.w3.org/2000/svg" p-id="2934" xmlns:xlink="http://www.w3.org/1999/xlink" width="200" height="200"><defs><style type="text/css"></style></defs><path d="M996.787309 145.845804c-1.815034-0.26092-18.690715-2.600646-48.777789-2.600646-56.224704 0-155.561098 8.41075-283.086836 52.292368 130.994692-74.191116 265.118999-80.908025 266.951142-80.986443 11.373547-0.461957 20.206332-10.063244 19.760059-21.419682-0.479066-11.390657-10.141663-20.34606-21.415404-19.761485-8.52624 0.345042-167.074373 7.98729-313.77417 102.846695 110.928087-103.553888 273.184707-134.927028 275.317693-135.333379 11.172511-2.07738 18.552413-12.82643 16.513529-23.99894-2.054567-11.172511-12.79934-18.613722-23.97185-16.536342-11.818395 2.184314-271.914326 52.253872-372.444108 244.189789-100.746503-191.496774-360.296355-241.520706-372.11475-243.70502-11.134014-2.031754-21.900174 5.363832-23.977554 16.536342-2.07738 11.211007 5.341019 21.944373 16.536342 23.99894 2.155798 0.400648 164.673338 31.662575 275.622812 135.572912-146.805306-95.060442-305.608656-102.741186-314.142024-103.063416-11.272316-0.685806-20.952022 8.387938-21.413979 19.760059-0.446273 11.373547 8.387938 20.974834 19.760059 21.415404 1.854956 0.082696 136.11899 6.594291 267.336106 81.107636-127.70824-44.004236-227.162975-52.43067-283.448988-52.43067-30.085649 0-46.984142 2.361112-48.799176 2.623458-16.051573 2.3383-27.563422 16.735953-26.355776 32.910144l51.318552 684.664164c1.191963 15.689421 13.99558 28.009695 29.723498 28.570031 254.270143 9.119369 409.809854 124.099559 411.341155 125.230213 5.48645 4.15476 12.057928 6.272061 18.652218 6.272061 4.679451 0 9.380289-1.069344 13.73466-3.225143 2.723264-1.333116 5.139982-3.085415 7.278671-5.064415 19.219684-13.673351 169.697831-115.144156 409.202466-123.698911 15.727918-0.561762 28.532961-12.882036 29.724923-28.571457l51.300016-684.686977C1024.335047 162.566074 1012.838882 148.208343 996.787309 145.845804L996.787309 145.845804zM480.968352 937.089388c-65.413937-36.664256-193.022372-93.59045-369.169063-104.985384l-46.967033-626.407706c3.447566-0.078419 7.156053-0.139728 11.188194-0.139728 71.18412 0 216.865901 14.420466 404.947901 108.934829L480.968352 937.089388 480.968352 937.089388zM912.232107 831.602125c-176.146691 11.374973-303.755125 68.321128-369.191875 105.003919l0-622.615097c188.082-94.520067 333.780891-108.894907 404.963585-108.894907 3.993645 0 7.724944 0.038496 11.172511 0.122618L912.232107 831.602125 912.232107 831.602125zM912.232107 831.602125" fill="#515151" p-id="2935"></path></svg>