<?xml version="1.0" standalone="no"?><!DOCTYPE svg PUBLIC "-//W3C//DTD SVG 1.1//EN" "http://www.w3.org/Graphics/SVG/1.1/DTD/svg11.dtd"><svg t="1531215305302" class="icon" style="" viewBox="0 0 1024 1024" version="1.1" xmlns="http://www.w3.org/2000/svg" p-id="2200" xmlns:xlink="http://www.w3.org/1999/xlink" width="200" height="200"><defs><style type="text/css"></style></defs><path d="M519.168 412.2624c-108.7488 0-197.2224-92.2624-197.2224-205.824C321.9456 93.184 410.4192 0.9216 519.168 0.9216c108.7488 0 197.2224 92.16 197.2224 205.7216 0 113.4592-88.4736 205.7216-197.2224 205.7216z m0-355.328c-79.0528 0-143.36 67.072-143.36 149.504 0 82.6368 64.3072 149.7088 143.36 149.7088 79.0528 0 143.36-67.072 143.36-149.6064S598.3232 56.9344 519.168 56.9344z" fill="#515151" p-id="2201"></path><path d="M773.5296 677.5808a27.5456 27.5456 0 0 1-26.9312-28.0576c0-130.8672-101.9904-237.2608-227.4304-237.2608s-227.5328 106.496-227.5328 237.2608a27.5456 27.5456 0 0 1-26.8288 28.0576 27.5456 27.5456 0 0 1-26.9312-28.0576c0-161.792 126.1568-293.376 281.2928-293.376s281.2928 131.584 281.2928 293.376a27.5456 27.5456 0 0 1-26.9312 28.0576" fill="#515151" p-id="2202"></path><path d="M996.352 705.8432H27.8528a27.5456 27.5456 0 0 1-26.9312-28.0576c0-15.36 12.0832-28.0576 26.9312-28.0576H996.352c14.848 0 26.9312 12.5952 26.9312 28.0576a27.5456 27.5456 0 0 1-26.9312 28.0576" fill="#515151" p-id="2203"></path><path d="M868.1472 1022.7712h-678.912a27.5456 27.5456 0 0 1-26.8288-28.0576V677.7856c0-15.36 11.9808-28.0576 26.8288-28.0576h678.912c14.848 0 26.9312 12.5952 26.9312 28.0576v316.928a27.5456 27.5456 0 0 1-26.9312 28.0576zM216.1664 966.656h625.0496V705.8432H216.1664V966.656z" fill="#515151" p-id="2204"></path><path d="M773.5296 652.8a25.9072 25.9072 0 0 1-12.6976-3.2768 28.672 28.672 0 0 1-11.0592-37.9904l177.4592-344.7808a26.3168 26.3168 0 0 1 36.4544-11.4688 28.672 28.672 0 0 1 10.9568 37.9904L797.2864 638.0544a26.7264 26.7264 0 0 1-23.7568 14.7456" fill="#515151" p-id="2205"></path></svg>